<svg id="Layer_1" data-name="Layer 1" xmlns="http://www.w3.org/2000/svg" xmlns:xlink="http://www.w3.org/1999/xlink" viewBox="0 0 464.42 578.16"><defs><style>.cls-1{fill:none;}.cls-2{clip-path:url(#clip-path);}.cls-3{fill:#fff;}.cls-4{fill:#231f20;}</style><clipPath id="clip-path" transform="translate(-65.79 -177.74)"><rect class="cls-1" x="3.33" y="80.34" width="589.33" height="467.66"/></clipPath></defs><g class="cls-2"><path class="cls-3" d="M66.15,755.76c2.51-6.57,4-37.18,7.21-43.43,4.77-9.21,12.94-16.07,20-23.62a127,127,0,0,0,31-57.57c4.82-20.37,4.76-42.42,15.08-60.63,6.91-12.2,17.95-21.56,29.69-29.23s22-21.83,33.75-29.44l4.85-6.34c11.93-20.48,29.93-36.91,41.82-57.42,3.79-6.54,7.45-14,14.37-17,3.59-1.57,7.61-1.73,11.52-1.86l23.15-.79c9.86-.34,19.76-.68,29.43-2.62,6.46-1.29,13.81-3.12,19.12.78,2.41,1.76,3.95,4.45,5.41,7.06l11,19.52,3.12,2.9c6,13.1,19.91,20.34,30.64,30,17.09,15.38,27,38,45.54,51.54,4.71,3.45,9.88,6.22,14.73,9.47,29.62,19.88,44.72,57.1,43.67,92.76l1.24,3.69c5,8.68-4.88,19.17-3.46,29.09.59,4.15,3.13,7.73,5.46,11.22a162.64,162.64,0,0,1,25.36,65.49l-63.47,2c-6.88.22-14.49.2-19.7-4.31-11-9.5-3.39-31.32-15.5-39.37L427.79,740c-.37,3.58-1.09,7.71-4.23,9.46a11.27,11.27,0,0,1-5.29,1q-114.51,3.21-229.09,2.61-1.32-40.37-4.58-80.64l-18.72,37.32c-7.79,15.52-16.58,32.08-32.15,39.77-7.94,3.93-16.91,5.12-25.7,6.26" transform="translate(-65.79 -177.74)"/><path class="cls-4" d="M66.51,755.69c1.2-3.27,1.51-7,2-10.39.68-5.2,1.23-10.41,1.87-15.62a117.29,117.29,0,0,1,2.29-14.2c1.37-5.45,5.27-10.1,8.92-14.21,5-5.63,10.65-10.68,15.6-16.38a126.13,126.13,0,0,0,13.38-18.6,130.19,130.19,0,0,0,15.63-41.88c2.94-15.42,4-31.45,9.91-46.15,5.86-14.53,16.93-25.61,29.6-34.45A131.55,131.55,0,0,0,182.5,530.3c5.36-5.22,10.51-10.71,16.39-15.36,1.68-1.33,3.72-2.31,5-4s2.45-3.15,3.63-4.75c1.68-2.27,3-4.81,4.58-7.17,2.13-3.21,4.39-6.34,6.72-9.41,9.41-12.42,20-24,28.39-37.14,3.83-6,6.73-13.12,12-18,4.11-3.81,9.27-4.78,14.7-5,4.43-.18,8.87-.31,13.3-.46,8.66-.29,17.34-.44,26-1.09,4.05-.31,8.09-.75,12.09-1.43,4.26-.73,8.49-1.95,12.83-2s8.21,1.22,11,4.63c2.49,3,4.19,6.81,6.1,10.2l6.58,11.72a14.46,14.46,0,0,0,1.7,2.7c.69.76,1.56,1.35,2.26,2.1a15.31,15.31,0,0,1,1.91,3.2,39.41,39.41,0,0,0,2.87,4.24,55.11,55.11,0,0,0,6.64,7c5.07,4.58,10.69,8.49,16,12.8,11.26,9.18,19.41,21.07,28.13,32.54a136.47,136.47,0,0,0,13.45,15.66c5.58,5.42,12,9.44,18.56,13.52A94.18,94.18,0,0,1,483,573.67a112.42,112.42,0,0,1,15.3,37.47,121.2,121.2,0,0,1,2.59,20.44c.11,2.78-.4,6,.17,8.72.42,2,1.53,3.69,2.09,5.58,1.87,6.29-2,12.89-3.65,18.82a19.12,19.12,0,0,0-.65,8.79c.78,3.89,3.17,7.21,5.32,10.45a163.11,163.11,0,0,1,20.24,42.89,165.26,165.26,0,0,1,5.13,22.6l.6-.23q-31.74,1-63.47,2c-8.14.24-17.59,0-22.47-7.64-3.43-5.37-3.8-12.14-4.63-18.28-.88-6.57-2.17-13.71-8-17.75-.12-.08-.69.05-.71.22-1.17,11.18-2,22.45-3.54,33.59a14,14,0,0,1-1.88,6.06c-2.42,3.56-7.69,2.92-11.5,3q-8.77.24-17.55.46-34.64.86-69.28,1.37-34.87.51-69.75.68Q240,753,222.68,753q-8.77,0-17.56,0l-8.31,0-4.62,0a7.59,7.59,0,0,1-1.85,0c-1.12-.52-.86-1.75-.89-2.72q-1.33-39-4.49-77.89c0-.14-.67.06-.72.17-7.35,14.65-14.5,29.44-22.11,44-6.26,11.93-13.77,24.26-25.61,31.38-8.58,5.17-18.57,6.54-28.33,7.81-.17,0-.78.32-.32.26,7.52-1,15.14-2,22.27-4.71a46.54,46.54,0,0,0,17.12-11.66c10.46-11,16.73-25.38,23.45-38.78L185,672.34l-.71.16q3.24,40.26,4.58,80.65s.11,0,.12,0q57.29.28,114.56-.36,56.82-.65,113.61-2.23c2.79-.08,5.86-.07,8-2.13,2.5-2.38,2.8-6.26,3.14-9.49q1.67-15.71,3.3-31.41l-.71.21c11.28,7.82,6,24.88,12.31,35.54,4,6.63,11.47,8.15,18.66,8.23,10.32.1,20.69-.59,31-.92l36.79-1.16c.1,0,.63-.08.6-.23a163.87,163.87,0,0,0-14.46-46.44,189.91,189.91,0,0,0-12.22-21c-2-3.1-4-6.42-4.24-10.2-.26-3.5.76-6.94,1.86-10.21,2-5.84,4.53-11.64,1.85-17.65a12.22,12.22,0,0,1-1.36-5q.11-5.24-.24-10.45a118.68,118.68,0,0,0-9.84-40.17,99.66,99.66,0,0,0-23.34-33,114.62,114.62,0,0,0-17.71-12.78,86.31,86.31,0,0,1-17.8-14.16c-10.09-10.68-17.71-23.39-27.42-34.41a109.12,109.12,0,0,0-15.26-14c-5.54-4.3-11.26-8.45-16-13.6a39.58,39.58,0,0,1-6.34-8.86c-.9-1.75-2.32-2.52-3.58-4a30.2,30.2,0,0,1-2.78-4.82l-3.51-6.25c-2.1-3.72-4.06-7.57-6.34-11.18-1.81-2.86-4.09-5.2-7.39-6.21a20.94,20.94,0,0,0-8.81-.36c-3.85.51-7.63,1.48-11.47,2.07-4.83.74-9.71,1.14-14.59,1.41-9.14.49-18.3.69-27.44,1-6.55.22-14-.35-19.86,3.13-5.63,3.35-8.82,9.45-12,14.94a171.12,171.12,0,0,1-13.34,19.59c-9.7,12.52-20.42,24.34-28.56,38-1.77,3-4.06,6.35-6.89,8.32-6.18,4.32-11.46,9.8-16.8,15.08a114.82,114.82,0,0,1-16.76,14.22,108.94,108.94,0,0,0-17.83,14.49,67.16,67.16,0,0,0-12.8,18.14,94.85,94.85,0,0,0-6.76,21.8c-3.15,15.71-4.43,31.7-9.73,46.93a127.35,127.35,0,0,1-23,40.33c-5,5.87-10.66,11-15.83,16.69-3.84,4.22-8.13,9.09-9.62,14.74-2.51,9.54-2.9,19.72-4.16,29.48-.47,3.65-.77,7.59-2,11.07,0,.1.65,0,.72-.14Z" transform="translate(-65.79 -177.74)"/><path class="cls-3" d="M234.62,179.25c27.11-2,42.89-2.67,62.33,6.22s35.89,12,59.67,35.56c10.1,10,20.44,20.44,23.55,49.77.92,8.69-14.89,50.67-15.33,56.45s1.33,21.33,1.33,26.66-11.11,18.23-12,20-4,27.56-8.89,38.67-14.22,48.89-16.44,58.22-8.19,20.89-20.32,19.56S280,479.69,274.17,470.8s-29.33-36-36.89-45.77c-2.17-2.81-7.77-11.88-14.22-16.67-6.21-4.61-13.19-4.86-18.67-11.78-8.66-10.94-11.64-27.81-13.77-31.11-4.89-7.56-28.89-36.22-31.56-44.11a98.82,98.82,0,0,1-4.44-29.22c.12-12.31,3.43-25.31,7.33-32.67,8-15.11,33.11-52.44,40.22-56.44S234.62,179.25,234.62,179.25Z" transform="translate(-65.79 -177.74)"/><path class="cls-4" d="M234.58,179.5c17.75-1.31,36.07-2.92,53.28,2.71,7.35,2.41,14.36,5.92,21.51,8.85a174.33,174.33,0,0,1,20.13,9.37A121.78,121.78,0,0,1,352,217.05a124.47,124.47,0,0,1,13.76,14.36,60.72,60.72,0,0,1,9.67,18.09,86.8,86.8,0,0,1,3.23,12.89c.6,3.4,1.46,7.06,1.16,10.52-.42,5-1.95,9.93-3.32,14.71-1.85,6.45-3.9,12.85-5.95,19.24-1.7,5.26-3.46,10.51-5,15.83a28.5,28.5,0,0,0-1.05,4.38,49.59,49.59,0,0,0,.13,8.44c.22,3.87.54,7.73.83,11.6.19,2.62.81,5.74.13,8.34-.8,3-2.75,5.85-4.49,8.41s-3.73,5.18-5.64,7.73a9.1,9.1,0,0,0-1.9,3.2c-.49,2.08-.79,4.21-1.15,6.31-1.23,7.14-2.47,14.29-4.23,21.32-1.41,5.66-3.73,10.9-5.58,16.4-2.17,6.44-4,13-5.81,19.55q-2.83,10.38-5.45,20.83c-1.29,5.13-2.26,10.45-3.95,15.46-2.41,7.09-7.25,14.69-15.4,15.48-4.26.42-8.73-.89-12.7-2.3a63.61,63.61,0,0,1-12.67-6.21,45.91,45.91,0,0,1-9.86-8.08c-1.74-1.95-3.09-4.21-4.65-6.31-4-5.38-8.27-10.54-12.53-15.71-8.32-10.08-17.13-19.87-24.72-30.53a71.85,71.85,0,0,0-8.32-10.09,34.05,34.05,0,0,0-10.24-6.62c-4.39-2-8.5-4-11.56-7.86A50.47,50.47,0,0,1,198,384.77c-1.6-3.69-2.91-7.5-4.14-11.33a56.34,56.34,0,0,0-2.55-7.41,28.8,28.8,0,0,0-3-4.43c-1.69-2.28-3.42-4.52-5.15-6.76-4.32-5.6-8.68-11.17-12.9-16.85-3.43-4.6-7-9.26-9.75-14.33a27.68,27.68,0,0,1-2.19-6.07,105.5,105.5,0,0,1-2.54-12.93,85.47,85.47,0,0,1,1.82-32.29,58.83,58.83,0,0,1,4.68-12.87c1.25-2.36,2.6-4.68,4-7,3.6-6.05,7.41-12,11.32-17.83,4.16-6.22,8.43-12.37,13-18.33,3.1-4.09,6.26-8.4,10.1-11.83a30.66,30.66,0,0,1,4-2.73c2.32-1.51,4.58-3.12,6.82-4.74,5.28-3.81,10.47-7.73,15.64-11.69q3.88-3,7.74-6c.39-.3-.2-.51-.47-.3-8,6.27-16.15,12.48-24.44,18.42-2.16,1.55-4.34,3.09-6.59,4.51a22.38,22.38,0,0,0-3.74,2.68c-4,3.73-7.28,8.24-10.54,12.59a393.45,393.45,0,0,0-24.15,36.25c-1.47,2.5-3,5-4.19,7.65A66,66,0,0,0,156.5,274a86.46,86.46,0,0,0-1.29,31.94,101.2,101.2,0,0,0,2.62,12.66,25.11,25.11,0,0,0,2.13,5.58A128.22,128.22,0,0,0,170,338.89c4.29,5.74,8.7,11.38,13.08,17.05,1.69,2.21,3.39,4.41,5,6.66a20.54,20.54,0,0,1,2.9,4.7c2.65,6.84,4.33,13.94,7.56,20.57,1.91,3.92,4.2,8,7.38,11s7.25,4.65,11.21,6.49a33.29,33.29,0,0,1,11,8.27,105.44,105.44,0,0,1,7.42,9.67c3.31,4.7,7.13,9.06,10.8,13.47,5,6,10,12,14.92,18,4,4.85,8,9.7,11.62,14.85a39.66,39.66,0,0,0,6.09,7.16,57,57,0,0,0,10.92,7.53,60.07,60.07,0,0,0,12.16,5c3.62,1,7.53,1.82,11.29,1.08,13.23-2.61,15.53-18.7,18.24-29.55,3.46-13.85,6.94-27.77,11.43-41.33,1.81-5.47,4.16-10.66,5.61-16.25,1.85-7.18,3.12-14.49,4.38-21.79.38-2.21.7-4.45,1.21-6.64.34-1.49,1.43-2.61,2.34-3.81,1.95-2.58,3.9-5.17,5.69-7.88,1.6-2.41,3.35-5.05,4-7.9.61-2.49,0-5.47-.14-8-.29-3.93-.62-7.85-.85-11.78a44.12,44.12,0,0,1-.09-8.75,35.65,35.65,0,0,1,1.16-4.66c3.5-12.06,7.79-23.87,11.17-36,1.28-4.58,2.88-9.48,3-14.28.08-3.92-.89-8.09-1.65-11.92a81.59,81.59,0,0,0-3.49-12.57,60.45,60.45,0,0,0-9.72-17.11,133.09,133.09,0,0,0-15-15.24,119,119,0,0,0-22.1-15.79,195.36,195.36,0,0,0-19.87-9.06c-7.34-3-14.5-6.63-22.09-8.93a87.5,87.5,0,0,0-23.74-3.47c-9.43-.19-18.87.54-28.28,1.23C234.26,179,234.08,179.53,234.58,179.5Z" transform="translate(-65.79 -177.74)"/><path class="cls-4" d="M249.28,350.58c0-2.44-20.11-29.22-36.33-29.22-6.22,0-19.67,9.42-19.67,21.44s4.9,22.67,24.78,22.67S249.28,353.72,249.28,350.58Z" transform="translate(-65.79 -177.74)"/><path class="cls-4" d="M297.06,340.55c-1.05-2.21,5.64-35,20.3-42,5.62-2.66,21.8.08,27,10.95s5.29,22.57-12.67,31.1S298.4,343.38,297.06,340.55Z" transform="translate(-65.79 -177.74)"/><path d="M276.16,450.68a22.26,22.26,0,0,1,9.47-5.85,72.39,72.39,0,0,1,11.88-3,83.5,83.5,0,0,1,24.55-.61c.17,0,.83-.26.47-.31a84.51,84.51,0,0,0-26.27.89c-7.17,1.38-15.69,3.28-20.76,9-.16.17.53.09.66-.05Z" transform="translate(-65.79 -177.74)"/><path d="M318,440.41a18.64,18.64,0,0,0,2.76-1.88,7.15,7.15,0,0,0,2.1-2.48c.66,1.71,1.35,3.41,2.05,5.11.18.45.37.9.59,1.34a9,9,0,0,0,1.43,2c-1.32-.87-3-1.07-4.38-1.75s-2.82-2-4.49-2.3" transform="translate(-65.79 -177.74)"/><path d="M275.92,450.85a2.27,2.27,0,0,0-1.22-.48l-3.15-.55,1.47.95c1.58,1,3.26,2.17,4,3.93a7.37,7.37,0,0,0-.47-3.24l-.24-.81" transform="translate(-65.79 -177.74)"/><path class="cls-4" d="M282.45,408.33a6.37,6.37,0,0,0-.07-3.72,3.87,3.87,0,0,0-4.3-1.92,1.54,1.54,0,0,0-.76,1.34,4.48,4.48,0,0,0,1.4,3,4.18,4.18,0,0,0,3.29,1.61c.14,0,.39-.11.41-.27s-.2-.18-.32-.18a3.41,3.41,0,0,1-2.46-1.19,5.48,5.48,0,0,1-1.53-2.43,2,2,0,0,1,.13-1.37c.15-.26.33-.21.6-.18s.53.06.8.11a2.7,2.7,0,0,1,2,1.73,6.15,6.15,0,0,1,.05,3.53c-.07.3.67.19.72-.08Z" transform="translate(-65.79 -177.74)"/><path class="cls-4" d="M294.54,404.62c-.63-.63-1.28-1.24-1.89-1.89a1.58,1.58,0,0,1-.48-1,2.65,2.65,0,0,1,.12-1.08c.17-.55.77-1.28,1.4-.84s.53,1.27.55,1.86c0,1,0,2,0,3,0,.35.71.23.73-.06a32,32,0,0,0,0-3.25c0-.72-.08-1.65-.81-2a1.84,1.84,0,0,0-2.2.56,2.69,2.69,0,0,0-.41,2.45,3.69,3.69,0,0,0,1,1.24l1.3,1.29c.22.22.9-.07.67-.3Z" transform="translate(-65.79 -177.74)"/></g></svg>